# xmcd
#
# Track frame offsets:
#	150
#	26826
#	46912
#	69158
#	90610
#	107727
#	129214
#	150306
#
# Disc length: 2240 seconds
#
# Revision: 1
# Processed by: cddbd v1.5.2PL0 Copyright (c) Steve Scherf et al.
# Submitted via: audiograbber 1.83.01
#
DISCID=5608be08
DTITLE=Breakwater - Splashdown
DYEAR=1980
DGENRE=Funk
TTITLE0=Splashdown time
TTITLE1=Love of my life
TTITLE2=Release the beast
TTITLE3=The one in my dreams
TTITLE4=You
TTITLE5=Say you love me girl
TTITLE6=Let love in
TTITLE7=Time
EXTD=
EXTT0=
EXTT1=
EXTT2=
EXTT3=
EXTT4=
EXTT5=
EXTT6=
EXTT7=
PLAYORDER=
